<?xml version="1.0" encoding="UTF-8"?>
<!-- Imagen provisional: bomberos de espaldas con equipo de respiración autónoma -->
<svg viewBox="0 0 800 260" preserveAspectRatio="xMidYMid slice" xmlns="http://www.w3.org/2000/svg">
  <defs>
    <linearGradient id="botella" x1="0" x2="1"><stop offset="0" stop-color="#C9961F"/><stop offset="0.35" stop-color="#F2C744"/><stop offset="0.7" stop-color="#E0AE2C"/><stop offset="1" stop-color="#A97A12"/></linearGradient>
    <linearGradient id="casco" x1="0" x2="1"><stop offset="0" stop-color="#C9C04A"/><stop offset="0.4" stop-color="#EDE58A"/><stop offset="1" stop-color="#B8AE3A"/></linearGradient>
    <g id="bombero">
      <!-- Brazos -->
      <path d="M-78 40 C-96 70 -100 130 -96 200 L-70 200 C-70 140 -64 90 -56 60 Z" fill="#1C3640"/>
      <path d="M78 40 C96 70 100 130 96 200 L70 200 C70 140 64 90 56 60 Z" fill="#1C3640"/>
      <rect x="-99" y="150" width="30" height="9" fill="#D9E24F" transform="rotate(-2 -84 154)"/>
      <rect x="-99" y="159" width="30" height="6" fill="#C9D1D8" transform="rotate(-2 -84 162)"/>
      <rect x="69" y="150" width="30" height="9" fill="#D9E24F" transform="rotate(2 84 154)"/>
      <rect x="69" y="159" width="30" height="6" fill="#C9D1D8" transform="rotate(2 84 162)"/>
      <!-- Chaquetón -->
      <path d="M-80 36 Q0 14 80 36 L72 230 L-72 230 Z" fill="#22414C"/>
      <rect x="-76" y="168" width="152" height="12" fill="#D9E24F"/>
      <rect x="-76" y="180" width="152" height="7" fill="#C9D1D8"/>
      <rect x="-76" y="187" width="152" height="5" fill="#D9E24F"/>
      <!-- Capucha y casco -->
      <rect x="-22" y="0" width="44" height="34" rx="8" fill="#B7BDC2"/>
      <path d="M-40 -6 C-40 -56 40 -56 40 -6 Z" fill="url(#casco)"/>
      <path d="M-46 -8 Q0 4 46 -8 L46 -2 Q0 12 -46 -2 Z" fill="#A99F32"/>
      <rect x="-6" y="-46" width="12" height="40" rx="5" fill="#B8AE3A"/>
      <!-- Arnés del equipo -->
      <path d="M-46 30 C-40 70 -36 110 -30 160" fill="none" stroke="#111A1F" stroke-width="12"/>
      <path d="M46 30 C40 70 36 110 30 160" fill="none" stroke="#111A1F" stroke-width="12"/>
      <rect x="-34" y="40" width="68" height="168" rx="10" fill="#14202A"/>
      <!-- Botella -->
      <rect x="-26" y="34" width="52" height="170" rx="26" fill="url(#botella)"/>
      <rect x="-26" y="182" width="52" height="16" fill="#C9D1D8" opacity="0.9"/>
      <rect x="-9" y="200" width="18" height="16" fill="#A9B6C0"/>
      <rect x="-15" y="214" width="30" height="7" rx="3" fill="#7E8C98"/>
      <rect x="-40" y="78" width="80" height="12" rx="4" fill="#111A1F"/>
      <rect x="-40" y="138" width="80" height="12" rx="4" fill="#111A1F"/>
    </g>
  </defs>

  <!-- Parque de bomberos -->
  <rect width="800" height="260" fill="#D3D9DE"/>
  <path d="M0 40 H800" stroke="#C3CAD0" stroke-width="2"/>
  <rect x="0" y="0" width="140" height="230" fill="#B4441C"/>
  <rect x="18" y="26" width="104" height="70" rx="4" fill="#2A4256"/>
  <rect x="0" y="140" width="140" height="6" fill="#D9E24F"/>
  <rect x="640" y="20" width="180" height="210" fill="#C3CAD0"/>
  <path d="M640 56 H820 M640 92 H820 M640 128 H820 M640 164 H820 M640 200 H820" stroke="#AEB7BF" stroke-width="3"/>
  <rect y="230" width="800" height="30" fill="#9AA5AF"/>

  <!-- Bomberos -->
  <use href="#bombero" transform="translate(540 92) scale(0.86)" opacity="0.92"/>
  <use href="#bombero" transform="translate(360 70)"/>
</svg>
